<svg class="icon" viewBox="0 0 1024 1024" version="1.1" xmlns="http://www.w3.org/2000/svg" width="200" height="200"><path d="M943.872 190.976c0 17.664-17.152 32-38.272 32H288.448c-21.12 0-38.208-14.336-38.208-32s17.152-32 38.208-32h617.216c21.056 0 38.208 14.336 38.208 32zM943.936 486.784c0 17.664-17.152 32-38.272 32H288.448c-21.12 0-38.208-14.336-38.208-32s17.152-32 38.208-32h617.28c21.056 0 38.208 14.336 38.208 32zM943.936 831.36c0 17.6-17.152 32-38.272 32H288.448c-21.12 0-38.208-14.4-38.208-32 0-17.728 17.152-32 38.208-32h617.28c21.056 0 38.208 14.272 38.208 32z" fill=""></path><path d="M130.624 192.576m-50.688 0a50.688 50.688 0 1 0 101.376 0 50.688 50.688 0 1 0-101.376 0Z" fill=""></path><path d="M130.624 484.672m-50.688 0a50.688 50.688 0 1 0 101.376 0 50.688 50.688 0 1 0-101.376 0Z" fill=""></path><path d="M130.56 831.36m-50.624 0a50.624 50.624 0 1 0 101.248 0 50.624 50.624 0 1 0-101.248 0Z" fill=""></path></svg>
