<svg class="icon" viewBox="0 0 1024 1024" version="1.1" xmlns="http://www.w3.org/2000/svg" width="200" height="200"><path d="M921.6 999.424H102.4c-45.056 0-79.36-28.16-79.36-65.536v-167.936c0-15.36 12.8-28.16 28.16-28.16s28.16 12.8 28.16 28.16v167.936c0 2.56 9.216 9.216 23.04 9.216h819.2c14.336 0 23.04-6.656 23.04-9.216v-167.936c0-15.36 12.8-28.16 28.16-28.16s28.16 12.8 28.16 28.16v167.936c0 37.888-34.304 66.048-79.36 65.536z"></path><path d="M512 804.864c-15.36 0-28.16-12.8-28.16-28.16V52.224c0-15.36 12.8-28.16 28.16-28.16s28.16 12.8 28.16 28.16v724.48c0 15.36-12.8 28.16-28.16 28.16z"></path><path d="M513.536 837.12c-14.336 0-28.16-5.12-39.936-16.384l-225.28-226.304c-11.264-11.776-11.264-29.696 0-39.936 11.264-11.776 29.696-11.776 39.936 0l225.28 226.304 222.72-222.72c11.264-11.776 29.696-11.776 39.936 0 10.24 11.264 11.264 29.696 0 39.936L552.96 820.224c-10.24 11.776-25.6 16.896-39.424 16.896z"></path></svg>
