<svg class="icon" viewBox="0 0 1028 1024" version="1.1" xmlns="http://www.w3.org/2000/svg" width="200" height="200"><path d="M203.2 313.6c0-6.4-6.4-12.8-6.4-19.2-6.4 0-12.8-6.4-25.6-6.4-6.4 0-12.8 0-19.2 6.4-6.4 6.4-6.4 12.8-12.8 19.2l-134.4 384c-6.4 12.8-6.4 25.6 0 32 6.4 6.4 12.8 6.4 19.2 6.4 6.4 0 6.4 0 12.8-6.4 6.4 0 6.4-6.4 6.4-12.8s6.4-12.8 6.4-12.8c0-6.4 6.4-12.8 6.4-19.2l25.6-70.4h166.4l32 96c0 6.4 6.4 12.8 12.8 19.2 6.4 6.4 12.8 6.4 19.2 6.4 12.8 0 19.2-6.4 19.2-12.8v-25.6l-128-384z m-102.4 256l70.4-217.6 70.4 217.6H100.8z m460.8-70.4c19.2-6.4 38.4-12.8 51.2-32 19.2-19.2 25.6-38.4 25.6-64 0-19.2 0-32-6.4-44.8-6.4-12.8-12.8-19.2-25.6-32-12.8-6.4-25.6-19.2-38.4-19.2-19.2-6.4-38.4-12.8-64-12.8H408c-12.8 0-19.2 6.4-19.2 6.4-6.4 6.4-6.4 12.8-6.4 19.2v384c0 6.4 0 12.8 6.4 19.2 6.4 6.4 12.8 6.4 19.2 6.4h128c38.4 0 70.4-12.8 96-32 25.6-19.2 32-51.2 32-89.6 0-32-6.4-57.6-25.6-76.8-19.2-19.2-44.8-32-76.8-32zM427.2 339.2h76.8c25.6 0 51.2 6.4 64 19.2 12.8 12.8 19.2 32 19.2 51.2 0 19.2-6.4 38.4-19.2 51.2-12.8 6.4-38.4 12.8-64 12.8H427.2V339.2z m160 326.4c-19.2 12.8-38.4 19.2-76.8 19.2H427.2V518.4h70.4c38.4 0 64 6.4 83.2 19.2 19.2 12.8 32 32 32 64s-6.4 51.2-25.6 64z m435.2-6.4c0-6.4-6.4-6.4-12.8-6.4s-12.8 0-25.6 6.4c-12.8 12.8-25.6 19.2-38.4 25.6-12.8 6.4-32 12.8-51.2 12.8-25.6 0-44.8-6.4-70.4-12.8-19.2-6.4-38.4-19.2-51.2-38.4-12.8-19.2-25.6-38.4-32-57.6-6.4-25.6-12.8-44.8-12.8-76.8 0-19.2 6.4-44.8 12.8-64 12.8-25.6 19.2-44.8 32-64 12.8-19.2 25.6-32 44.8-44.8 19.2-12.8 38.4-19.2 64-19.2 19.2 0 32 0 44.8 6.4 12.8 6.4 25.6 12.8 32 19.2 12.8 6.4 19.2 12.8 25.6 19.2 6.4 6.4 12.8 6.4 19.2 6.4 6.4 0 6.4 0 12.8-6.4l6.4-6.4c0-6.4 0-12.8-6.4-19.2l-19.2-19.2c-6.4-6.4-19.2-12.8-32-19.2-12.8-6.4-25.6-12.8-38.4-12.8-12.8-6.4-25.6-6.4-44.8-6.4-32 0-57.6 6.4-76.8 19.2-25.6 12.8-44.8 25.6-64 51.2-19.2 19.2-32 44.8-38.4 70.4-12.8 25.6-19.2 57.6-19.2 89.6 0 38.4 6.4 70.4 12.8 96 12.8 25.6 25.6 51.2 44.8 70.4 19.2 19.2 38.4 32 64 44.8 25.6 12.8 57.6 12.8 89.6 12.8 19.2 0 32 0 51.2-6.4 12.8-6.4 32-12.8 44.8-19.2 12.8-6.4 19.2-12.8 25.6-25.6 6.4-6.4 12.8-12.8 12.8-19.2l-6.4-6.4z"></path></svg>
