<svg class="icon" viewBox="0 0 1024 1024" version="1.1" xmlns="http://www.w3.org/2000/svg" width="200" height="200"><path d="M793.6 985.6H249.6c-44.8 0-83.2-38.4-83.2-83.2 0-44.8 38.4-76.8 83.2-76.8-64-64-108.8-147.2-121.6-224-6.4-25.6-12.8-44.8-12.8-57.6h-25.6C51.2 544 19.2 512 19.2 467.2S51.2 384 89.6 384h844.8c38.4 0 70.4 32 70.4 76.8s-32 76.8-70.4 76.8h-19.2c0 19.2-6.4 32-6.4 51.2-19.2 96-57.6 172.8-108.8 224 51.2 0 83.2 32 83.2 76.8 0 57.6-38.4 96-89.6 96z m-544-115.2c-12.8 0-38.4 0-38.4 25.6 0 19.2 19.2 38.4 38.4 38.4h550.4c19.2 0 38.4-19.2 38.4-38.4 0-25.6-25.6-25.6-38.4-25.6h-64c-12.8 0-19.2-6.4-25.6-19.2-6.4-12.8 0-19.2 6.4-25.6 70.4-51.2 115.2-128 140.8-243.2 6.4-25.6 6.4-38.4 6.4-70.4 0-12.8 12.8-25.6 25.6-25.6h38.4c12.8 0 19.2-12.8 19.2-25.6s-12.8-25.6-19.2-25.6H89.6c-12.8 0-19.2 12.8-19.2 32 0 12.8 12.8 25.6 19.2 25.6h51.2c12.8 0 25.6 12.8 25.6 25.6v6.4c0 19.2 0 38.4 6.4 64 19.2 83.2 76.8 172.8 153.6 243.2 6.4 6.4 12.8 19.2 6.4 25.6s-12.8 12.8-25.6 12.8h-57.6z" fill=""></path><path d="M435.2 422.4c-12.8 6.4-25.6 6.4-38.4 0L147.2 76.8c-6.4-6.4 0-25.6 12.8-32 12.8-6.4 25.6-6.4 38.4 0L441.6 384c12.8 12.8 6.4 25.6-6.4 38.4z" fill=""></path></svg>
