<svg class="icon" viewBox="0 0 1024 1024" version="1.1" xmlns="http://www.w3.org/2000/svg" id="3917" width="200" height="200"><path d="M832 470.912a21.333333 21.333333 0 0 0 21.333333-21.333333V220.16a21.034667 21.034667 0 0 0-17.365333-20.48c-1.536-0.810667-2.944-1.706667-4.736-2.133333L516.565333 128.298667c-2.048-0.426667-4.010667-0.256-5.973333-0.128h-0.042667c-0.896 0.085333-1.834667-0.128-2.688 0.042666-1.92-0.128-3.84-0.341333-5.845333 0.085334L192.682667 197.589333c-1.792 0.426667-3.2 1.322667-4.736 2.133334a21.034667 21.034667 0 0 0-17.28 20.48v325.333333c0 1.408 0.554667 2.645333 0.810666 3.968 8.32 198.101333 173.44 324.906667 337.066667 348.288A24.106667 24.106667 0 0 0 511.573333 898.005333l0.426667-0.085333 0.426667 0.085333a24.106667 24.106667 0 0 0 3.029333-0.213333c144.512-20.693333 310.912-128.853333 334.976-317.568a21.333333 21.333333 0 0 0-42.368-5.376c-21.034667 165.461333-167.68 260.906667-296.021333 280.234667C363.178667 832.768 213.333333 715.818667 213.333333 533.973333V236.714667l296.064-66.389334L810.666667 236.714667V449.578667a21.333333 21.333333 0 0 0 21.333333 21.333333" id="3918"></path></svg>
