<svg class="icon" viewBox="0 0 1024 1024" version="1.1" xmlns="http://www.w3.org/2000/svg" width="200" height="200"><path d="M927.1 479.9c-7.3 0-14.7-2.5-20.7-7.6L511.2 137.1 116 472.3c-13.5 11.4-33.7 9.8-45.1-3.7-11.4-13.5-9.8-33.7 3.7-45.1L490.5 70.7c11.9-10.1 29.5-10.1 41.4 0l415.9 352.8c13.5 11.4 15.1 31.6 3.7 45.1-6.4 7.5-15.4 11.3-24.4 11.3z"></path><path d="M853.5 958.8H169c-23.1 0-41.9-18.8-41.9-41.9V409.2c0-17.7 14.3-32 32-32s32 14.3 32 32v485.6h640.3V409.2c0-17.7 14.3-32 32-32s32 14.3 32 32V917c0 23-18.8 41.8-41.9 41.8z"></path><path d="M339 830.7h-72c-6.6 0-12-5.4-12-12v-72c0-6.6 5.4-12 12-12h72c6.6 0 12 5.4 12 12v72c0 6.6-5.4 12-12 12zM531.1 830.7h-72c-6.6 0-12-5.4-12-12v-72c0-6.6 5.4-12 12-12h72c6.6 0 12 5.4 12 12v72c0 6.6-5.4 12-12 12zM339 702.9h-72c-6.6 0-12-5.4-12-12v-72c0-6.6 5.4-12 12-12h72c6.6 0 12 5.4 12 12v72c0 6.6-5.4 12-12 12zM339 575.4h-72c-6.6 0-12-5.4-12-12v-72c0-6.6 5.4-12 12-12h72c6.6 0 12 5.4 12 12v72c0 6.6-5.4 12-12 12zM531.1 702.9h-72c-6.6 0-12-5.4-12-12v-72c0-6.6 5.4-12 12-12h72c6.6 0 12 5.4 12 12v72c0 6.6-5.4 12-12 12zM723.1 830.7h-72c-6.6 0-12-5.4-12-12v-72c0-6.6 5.4-12 12-12h72c6.6 0 12 5.4 12 12v72c0 6.6-5.4 12-12 12z"></path></svg>
