<svg class="icon" viewBox="0 0 1024 1024" version="1.1" xmlns="http://www.w3.org/2000/svg" width="200" height="200"><path d="M1011.2256 346.13248c0.82432-0.83968 1.6128-1.70496 2.36544-2.6112 0.384-0.47616 0.72704-0.96768 1.08544-1.45408 0.384-0.52224 0.78848-1.01888 1.152-1.5616 0.37376-0.56832 0.70656-1.15712 1.05472-1.7408 0.29184-0.49152 0.59904-0.96768 0.8704-1.47456 0.32256-0.59392 0.5888-1.2032 0.8704-1.80736 0.25088-0.53248 0.51712-1.0496 0.7424-1.59744 0.25088-0.59392 0.45056-1.2032 0.66048-1.80224 0.20992-0.57856 0.43008-1.152 0.60928-1.73568 0.18432-0.60928 0.32256-1.2288 0.47616-1.84832 0.14848-0.59904 0.32256-1.18272 0.44032-1.792 0.14336-0.72704 0.2304-1.45408 0.3328-2.18112 0.07168-0.512 0.16896-1.00864 0.22016-1.53088 0.25088-2.52928 0.25088-5.06368 0-7.59296-0.0512-0.52224-0.14848-1.01888-0.22016-1.53088-0.10752-0.73216-0.18944-1.4592-0.3328-2.18624-0.11776-0.59904-0.29184-1.18784-0.44032-1.792-0.14848-0.6144-0.29184-1.23904-0.47616-1.84832-0.1792-0.5888-0.39936-1.15712-0.60928-1.73568-0.20992-0.59904-0.4096-1.20832-0.66048-1.80736-0.22528-0.54272-0.49152-1.06496-0.7424-1.59232-0.2816-0.60416-0.54784-1.21344-0.8704-1.81248-0.27136-0.49664-0.57856-0.97792-0.8704-1.46944-0.34816-0.5888-0.68096-1.1776-1.05984-1.74592-0.35328-0.53248-0.75264-1.03424-1.13664-1.55136-0.36352-0.49152-0.70656-0.98816-1.09568-1.46432-0.74752-0.91136-1.54112-1.77664-2.36544-2.61632-0.06144-0.06144-0.11264-0.128-0.17408-0.18944-0.0512-0.0512-0.10752-0.09216-0.1536-0.13824-0.8448-0.83968-1.73056-1.64864-2.65728-2.41152-0.4352-0.34816-0.89088-0.65536-1.33632-0.99328-0.55808-0.41984-1.10592-0.85504-1.6896-1.23904-0.52736-0.35328-1.07008-0.65536-1.60768-0.97792-0.53248-0.32256-1.05472-0.65024-1.60768-0.95232-0.54272-0.29184-1.11104-0.5376-1.66912-0.79872-0.57344-0.27648-1.14688-0.5632-1.73568-0.80896-0.53248-0.22016-1.09056-0.39936-1.63328-0.59904-0.63488-0.2304-1.25952-0.47104-1.90976-0.67072-0.54272-0.15872-1.09568-0.2816-1.6384-0.41984-0.6656-0.16896-1.32096-0.34816-2.00192-0.49152-0.61952-0.11776-1.24416-0.18944-1.8688-0.2816-0.6144-0.09216-1.21856-0.20992-1.8432-0.27136-1.1008-0.10752-2.20672-0.1536-3.31264-0.16896-0.1536 0-0.30208-0.02048-0.45568-0.02048l-186.48576 0 213.61664-213.61152c0.06144-0.06144 0.11264-0.128 0.17408-0.19456 0.82432-0.83968 1.6128-1.70496 2.36544-2.6112 0.384-0.47104 0.72704-0.96768 1.08544-1.4592 0.384-0.51712 0.78848-1.01888 1.152-1.55648 0.37376-0.56832 0.70656-1.16224 1.05472-1.7408 0.29184-0.49152 0.59904-0.96768 0.8704-1.47456 0.32256-0.59392 0.5888-1.2032 0.8704-1.81248 0.25088-0.53248 0.51712-1.0496 0.7424-1.59232 0.25088-0.59392 0.45056-1.19808 0.66048-1.80736 0.20992-0.57856 0.43008-1.14688 0.60928-1.73568 0.18432-0.60928 0.32256-1.2288 0.47616-1.84832 0.14848-0.59904 0.32256-1.18272 0.44032-1.792 0.14336-0.72192 0.2304-1.45408 0.3328-2.18624 0.07168-0.50688 0.16896-1.00864 0.22016-1.52576 0.25088-2.52928 0.25088-5.0688 0-7.59808-0.0512-0.512-0.14848-1.01376-0.22016-1.52576-0.10752-0.73216-0.18944-1.46432-0.3328-2.18624-0.11776-0.60416-0.29184-1.19296-0.44032-1.792-0.14848-0.61952-0.29184-1.23904-0.47616-1.84832-0.1792-0.5888-0.39936-1.16224-0.60928-1.73568-0.20992-0.60416-0.4096-1.20832-0.66048-1.80736-0.22528-0.54272-0.49152-1.06496-0.7424-1.59232-0.2816-0.60928-0.54784-1.21856-0.8704-1.81248-0.27136-0.50176-0.57856-0.97792-0.8704-1.46944-0.34816-0.5888-0.68096-1.1776-1.05984-1.75104-0.35328-0.53248-0.75264-1.02912-1.13664-1.54624-0.36352-0.49152-0.70656-0.98816-1.09568-1.46432-0.74752-0.90624-1.54112-1.77664-2.36544-2.6112-0.06144-0.06144-0.11264-0.128-0.17408-0.19456-0.0512-0.0512-0.10752-0.09216-0.1536-0.13824-0.8448-0.83968-1.73056-1.64352-2.65728-2.40128-0.4352-0.35328-0.89088-0.66048-1.33632-0.9984-0.55808-0.41984-1.10592-0.84992-1.6896-1.23904-0.53248-0.3584-1.08032-0.6656-1.62304-0.98816-0.52736-0.31744-1.04448-0.65024-1.59232-0.94208-0.55808-0.29696-1.13664-0.55296-1.71008-0.82432-0.55808-0.26624-1.11616-0.54784-1.6896-0.78848-0.55808-0.2304-1.1264-0.41472-1.6896-0.61952-0.61952-0.22016-1.22368-0.45568-1.85344-0.65024-0.57344-0.17408-1.15712-0.29696-1.73568-0.44032-0.62976-0.15872-1.2544-0.33792-1.89952-0.46592-0.68096-0.13312-1.36704-0.21504-2.048-0.31232-0.55296-0.08192-1.1008-0.18432-1.664-0.24064-1.26464-0.12288-2.52928-0.18944-3.79904-0.18944L425.7024 1.69472c-1.26976 0-2.53952 0.06656-3.79904 0.18944-0.56832 0.05632-1.12128 0.16384-1.68448 0.24576-0.67584 0.09728-1.35168 0.17408-2.0224 0.31232-0.65024 0.128-1.28512 0.3072-1.92512 0.47104-0.56832 0.14336-1.14688 0.26624-1.71008 0.4352-0.63488 0.19456-1.24928 0.43008-1.8688 0.65536-0.55808 0.19968-1.1264 0.384-1.67424 0.6144-0.58368 0.24064-1.14688 0.52736-1.7152 0.79872-0.5632 0.26624-1.13152 0.51712-1.68448 0.81408-0.55296 0.29696-1.08032 0.63488-1.61792 0.95744s-1.08032 0.62464-1.60256 0.9728c-0.59904 0.39936-1.16224 0.8448-1.73568 1.27488-0.42496 0.32256-0.86528 0.61952-1.28 0.96256-0.98304 0.80384-1.93024 1.65376-2.83136 2.55488L12.09856 399.40608c-0.89088 0.90112-1.7408 1.83808-2.54976 2.82112-0.36352 0.4352-0.67584 0.90112-1.01376 1.3568-0.4096 0.54784-0.83968 1.08544-1.21856 1.65888-0.36864 0.54784-0.6912 1.12128-1.024 1.67936-0.3072 0.512-0.62464 1.00864-0.90624 1.536-0.3072 0.57856-0.57344 1.17248-0.85504 1.77152-0.256 0.5376-0.52736 1.07008-0.75264 1.62816-0.24064 0.57856-0.4352 1.17248-0.64512 1.76128-0.21504 0.59392-0.44032 1.1776-0.62464 1.78176-0.1792 0.59392-0.31232 1.19808-0.4608 1.79712-0.14848 0.6144-0.32256 1.21856-0.45056 1.8432-0.13312 0.70144-0.22016 1.39776-0.32256 2.0992-0.0768 0.5376-0.1792 1.07008-0.2304 1.6128-0.25088 2.52416-0.25088 5.05856 0 7.58272 0.0512 0.54272 0.1536 1.0752 0.2304 1.6128 0.1024 0.69632 0.18432 1.39776 0.32256 2.0992 0.12288 0.62464 0.30208 1.2288 0.45568 1.84832 0.14848 0.59904 0.2816 1.19808 0.45568 1.79712 0.18432 0.60416 0.4096 1.18784 0.62464 1.78176 0.20992 0.5888 0.40448 1.1776 0.64512 1.75616 0.2304 0.55296 0.50176 1.09056 0.75264 1.62816 0.2816 0.59392 0.54272 1.18784 0.85504 1.7664 0.2816 0.53248 0.60416 1.02912 0.91136 1.54112 0.3328 0.5632 0.65024 1.1264 1.01888 1.67936 0.384 0.57344 0.80896 1.12128 1.22368 1.66912 0.33792 0.45056 0.65024 0.90624 1.00864 1.34656 1.60256 1.95072 3.39968 3.74784 5.35552 5.35552 0.44544 0.36352 0.9216 0.68608 1.3824 1.02912 0.5376 0.40448 1.06496 0.82432 1.62816 1.19808 0.55808 0.37376 1.14176 0.69632 1.71008 1.03936 0.50688 0.30208 0.99328 0.6144 1.50528 0.89088 0.58368 0.31744 1.18784 0.57856 1.792 0.86016 0.53248 0.256 1.06496 0.52736 1.6128 0.74752 0.58368 0.24576 1.1776 0.44032 1.77152 0.65024 0.59392 0.20992 1.17248 0.44032 1.77152 0.61952 0.5888 0.1792 1.18784 0.31232 1.78688 0.4608 0.61952 0.15872 1.2288 0.32768 1.85856 0.45568 0.67072 0.13312 1.3568 0.21504 2.03776 0.31744 0.55808 0.08192 1.11104 0.1792 1.67936 0.23552 1.2544 0.11776 2.51904 0.18944 3.78368 0.18944l192.5632 0L12.47744 678.14912c-0.06144 0.06144-0.10752 0.128-0.16896 0.1792-0.57856 0.57856-1.11616 1.18784-1.664 1.80224-0.31232 0.33792-0.64 0.6656-0.93696 1.01376-0.46592 0.56832-0.89088 1.17248-1.32096 1.76128-0.31744 0.43008-0.66048 0.83968-0.96256 1.28-0.29696 0.44032-0.54784 0.91136-0.82944 1.37216-0.8448 1.3568-1.59232 2.74432-2.24768 4.18304-1.00864 2.2016-1.81248 4.51584-2.3808 6.91712-0.09728 0.38912-0.22016 0.77824-0.3072 1.17248-0.11264 0.56832-0.1792 1.15712-0.27648 1.73568-0.10752 0.67072-0.23552 1.34144-0.3072 2.01216-0.05632 0.49152-0.06144 0.98816-0.09728 1.48992-0.0512 0.77824-0.10752 1.55648-0.11264 2.33472 0 0.09216-0.01536 0.16896-0.01536 0.26112 0 0.45056 0.0512 0.88064 0.06656 1.31072 0.0256 0.7424 0.04608 1.47968 0.11264 2.22208 0.05632 0.60928 0.14848 1.19808 0.2304 1.78688 0.09216 0.65024 0.17408 1.29024 0.29696 1.93024 0.11776 0.62976 0.27648 1.23904 0.43008 1.85856 0.14336 0.59904 0.2816 1.18784 0.45568 1.77664 0.18432 0.61952 0.39424 1.21856 0.60928 1.8176 0.19968 0.57856 0.39936 1.16224 0.62976 1.73056 0.24064 0.57856 0.50688 1.152 0.768 1.72032 0.26624 0.55296 0.52224 1.1264 0.81408 1.68448 0.29184 0.55808 0.6144 1.09056 0.93184 1.62816 0.31744 0.5376 0.62464 1.07008 0.96768 1.60256 0.36864 0.55808 0.768 1.09056 1.16736 1.62816 0.34304 0.46592 0.67072 0.93696 1.04448 1.39264 0.48128 0.5888 0.9984 1.152 1.51552 1.72032 0.2816 0.31232 0.52736 0.64 0.82432 0.94208 0.06144 0.06144 0.12288 0.10752 0.1792 0.16896 0.63488 0.64 1.31072 1.23904 1.99168 1.83296 0.28672 0.26112 0.55808 0.5376 0.85504 0.77824 0.80896 0.68096 1.664 1.30048 2.52928 1.90976 0.512 0.3584 1.03424 0.6912 1.5616 1.01888 0.7168 0.45056 1.42336 0.91136 2.16576 1.31072 0.47616 0.26112 0.96768 0.4608 1.44896 0.70144 0.66048 0.31744 1.30048 0.64512 1.97632 0.93696 0.47104 0.18944 0.95232 0.33792 1.41824 0.52224 0.71168 0.26112 1.42336 0.5376 2.15552 0.75776 0.46592 0.14848 0.94208 0.24064 1.408 0.36864 0.74752 0.19968 1.49504 0.4096 2.26304 0.55808 0.56832 0.10752 1.14176 0.16896 1.7152 0.26112 0.67584 0.10752 1.33632 0.2304 2.01728 0.30208 1.24416 0.11776 2.49856 0.18944 3.74784 0.18944 0.02048 0 0.04608 0 0.06656 0l190.85824 0-217.71264 213.3504c-0.04608 0.04096-0.08192 0.09216-0.11776 0.128-0.63488 0.61952-1.21856 1.29024-1.80736 1.96096-0.26112 0.29184-0.5376 0.56832-0.78848 0.8704-0.54784 0.65536-1.05472 1.36704-1.55648 2.0736-0.69632 0.96256-1.3312 1.94048-1.92512 2.94912-0.22528 0.38912-0.48128 0.75776-0.69632 1.152-0.34304 0.63488-0.62976 1.29536-0.93696 1.9456-0.22528 0.48128-0.48128 0.95232-0.6912 1.44896-0.24576 0.57856-0.4352 1.1776-0.65024 1.77152-0.20992 0.5888-0.45056 1.16736-0.63488 1.7664-0.1792 0.56832-0.29696 1.16224-0.44544 1.73056-0.2304 0.91136-0.44544 1.8176-0.6144 2.75968-0.16896 0.93696-0.3328 1.88416-0.4352 2.83648-0.03584 0.37888-0.03584 0.75776-0.06656 1.13152-0.06656 0.90112-0.128 1.80224-0.13312 2.69312 0 0.06144-0.01024 0.11776-0.01024 0.1792 0 0.41984 0.0512 0.8192 0.06656 1.23904 0.0256 0.78848 0.04608 1.58208 0.11776 2.37056 0.05632 0.5888 0.14848 1.16224 0.2304 1.7408 0.09728 0.65536 0.17408 1.31584 0.3072 1.97632 0.11776 0.61952 0.27648 1.21856 0.42496 1.82784s0.29184 1.20832 0.46592 1.81248c0.1792 0.60416 0.39936 1.19296 0.60928 1.78688 0.2048 0.5888 0.40448 1.1776 0.64 1.76128 0.23552 0.56832 0.50176 1.12128 0.76288 1.67936 0.26624 0.57856 0.52736 1.16224 0.82432 1.7152 0.29184 0.54784 0.6144 1.08032 0.93184 1.60768 0.32256 0.5376 0.62976 1.09056 0.97792 1.61792 0.36864 0.54784 0.77312 1.08032 1.17248 1.61792 0.34304 0.47104 0.67072 0.9472 1.0496 1.39264 0.50176 0.61952 1.03936 1.19808 1.58208 1.792 0.27136 0.30208 0.52224 0.61952 0.81408 0.9216 0.04096 0.04096 0.08704 0.08192 0.128 0.11776 0.72192 0.73216 1.47968 1.408 2.2528 2.07872 0.19968 0.16896 0.384 0.3584 0.58368 0.52736 0.96768 0.79872 1.97632 1.55136 3.01568 2.25792 0.44544 0.30208 0.91136 0.54784 1.36704 0.82944 0.61952 0.37888 1.23392 0.768 1.87392 1.12128 0.50688 0.27136 1.024 0.49152 1.54112 0.7424 0.62464 0.30208 1.23904 0.61952 1.87904 0.88576 0.50688 0.20992 1.01888 0.36864 1.52576 0.55808 0.67584 0.25088 1.34656 0.512 2.04288 0.72192 0.50176 0.14848 1.01376 0.26112 1.51552 0.38912 0.7168 0.18944 1.41824 0.38912 2.14528 0.53248 0.59904 0.11776 1.20832 0.18944 1.81248 0.2816 0.64 0.1024 1.26976 0.22016 1.92 0.2816 1.24416 0.11776 2.49344 0.18944 3.74784 0.18944 0.02048 0 0.03584 0 0.05632 0l558.2336 0c1.26464 0 2.52416-0.06144 3.77856-0.18944 0.5888-0.06144 1.16224-0.16896 1.7408-0.25088 0.65536-0.09216 1.31584-0.16896 1.9712-0.30208 0.6656-0.128 1.31072-0.32256 1.96608-0.48128 0.55808-0.13824 1.12128-0.26112 1.67424-0.43008 0.64-0.19968 1.25952-0.44032 1.88416-0.66048 0.55296-0.19968 1.11104-0.37888 1.65376-0.60928 0.5888-0.23552 1.15712-0.52736 1.73056-0.7936 0.55808-0.27136 1.1264-0.512 1.67424-0.80896 0.54784-0.29184 1.07008-0.61952 1.60256-0.94208 0.5376-0.32768 1.09568-0.64 1.62304-0.98816 0.5632-0.37888 1.1008-0.79872 1.6384-1.20832 0.4608-0.34816 0.93696-0.66048 1.38752-1.02912 0.82944-0.67584 1.60768-1.40288 2.3808-2.15552 0.13824-0.128 0.29184-0.25088 0.42496-0.37888l386.46272-386.46272c0.14336-0.14848 0.26624-0.31232 0.40448-0.45056 0.7424-0.75776 1.4592-1.54112 2.12992-2.36032 0.39424-0.48128 0.7424-0.97792 1.10592-1.47456 0.37888-0.512 0.77312-1.00864 1.13152-1.54112 0.37888-0.55808 0.71168-1.152 1.05472-1.7408 0.29696-0.49152 0.60416-0.96768 0.87552-1.47968 0.31744-0.5888 0.58368-1.19808 0.86528-1.79712 0.256-0.53248 0.52224-1.05984 0.74752-1.60256 0.24576-0.5888 0.44544-1.18784 0.65536-1.792 0.20992-0.5888 0.4352-1.16224 0.6144-1.76128 0.18432-0.60416 0.32256-1.21344 0.47104-1.82272 0.1536-0.60928 0.32256-1.19808 0.44544-1.81248 0.14336-0.72192 0.2304-1.44896 0.32768-2.18112 0.0768-0.50688 0.16896-1.01376 0.22528-1.536 0.25088-2.51904 0.25088-5.06368 0-7.59296-0.05632-0.52224-0.14848-1.01888-0.22528-1.54112-0.1024-0.72192-0.18432-1.44896-0.32768-2.16576-0.12288-0.61952-0.29184-1.20832-0.44544-1.81248-0.14848-0.60928-0.28672-1.2288-0.47104-1.83808-0.1792-0.5888-0.40448-1.17248-0.6144-1.75616-0.21504-0.5888-0.4096-1.18784-0.65024-1.78176-0.2304-0.54784-0.50176-1.08032-0.74752-1.60768-0.28672-0.59904-0.54784-1.20832-0.86528-1.80224-0.27136-0.50176-0.57856-0.9728-0.87552-1.47456-0.34304-0.57856-0.67584-1.17248-1.05472-1.7408-0.35328-0.53248-0.74752-1.02912-1.13152-1.54112-0.36352-0.49152-0.71168-0.9984-1.10592-1.47968-0.67072-0.81408-1.38752-1.5872-2.12992-2.34496-0.13824-0.14848-0.26112-0.31232-0.40448-0.45056-0.13312-0.13824-0.28672-0.25088-0.42496-0.38912-0.76288-0.7424-1.55136-1.46944-2.3808-2.1504-0.45056-0.36864-0.9216-0.6912-1.3824-1.02912-0.54272-0.40448-1.08032-0.82432-1.64352-1.2032-0.53248-0.3584-1.0752-0.66048-1.6128-0.98816-0.53248-0.32256-1.05984-0.65024-1.60768-0.95232-0.5376-0.2816-1.09056-0.53248-1.63328-0.77824-0.5888-0.29184-1.17248-0.57856-1.78176-0.82944-0.51712-0.20992-1.04448-0.38912-1.57184-0.57856-0.65536-0.2304-1.3056-0.48128-1.97632-0.68608-0.51712-0.14848-1.03424-0.26112-1.55136-0.39936-0.69632-0.16896-1.3824-0.36864-2.08896-0.512-0.56832-0.10752-1.14176-0.16896-1.71008-0.26112-0.67072-0.1024-1.3312-0.22016-2.01216-0.29184-0.9472-0.09216-1.88928-0.11776-2.84672-0.13824-0.3072-0.01024-0.59904-0.0512-0.91136-0.0512l-186.48576 0 213.61664-213.62176C1011.10784 346.26048 1011.16416 346.1888 1011.2256 346.13248zM581.56032 388.1728 131.85024 388.1728l309.72928-309.72416 449.71008 0-213.56544 213.5552c-0.04096 0.04096-0.0768 0.08192-0.11264 0.11776L581.56032 388.1728zM597.4528 464.91136c1.26464 0 2.52416-0.07168 3.77856-0.18944 0.58368-0.05632 1.152-0.16896 1.72544-0.24576 0.6656-0.09728 1.3312-0.16896 1.99168-0.30208 0.65024-0.13312 1.29024-0.31744 1.93536-0.48128 0.56832-0.13824 1.14176-0.26624 1.69984-0.4352 0.64-0.19456 1.2544-0.4352 1.87904-0.65536 0.55296-0.19968 1.11104-0.384 1.65888-0.60928 0.5888-0.24064 1.15712-0.52736 1.73056-0.80384 0.55808-0.26624 1.1264-0.51712 1.67424-0.80384 0.55296-0.30208 1.08032-0.63488 1.61792-0.96256 0.53248-0.32256 1.0752-0.61952 1.60256-0.96768 0.58368-0.39424 1.13664-0.82944 1.69472-1.24928 0.44544-0.32768 0.90112-0.64 1.3312-0.98816 0.92672-0.75776 1.80736-1.56672 2.65728-2.4064 0.0512-0.0512 0.10752-0.09216 0.1536-0.13824l96.11264-96.10752 170.58816 0-213.59104 213.59104c-0.02048 0.02048-0.04608 0.04096-0.06656 0.06144l-96.0768 96.08192L133.71904 667.29984 341.8624 464.91136 597.4528 464.91136zM891.2896 636.67712l-309.72928 309.72928L133.1968 946.4064l206.52032-202.37824 257.7408 0c1.26464 0 2.52416-0.06144 3.77856-0.18944 0.5888-0.06144 1.16224-0.16896 1.7408-0.25088 0.65536-0.09216 1.31584-0.16896 1.9712-0.30208 0.6656-0.128 1.31072-0.32256 1.96608-0.48128 0.55808-0.13824 1.12128-0.26112 1.67424-0.43008 0.64-0.19968 1.25952-0.44032 1.88416-0.66048 0.55296-0.19968 1.11104-0.37888 1.65376-0.60928 0.5888-0.24064 1.15712-0.53248 1.73056-0.79872 0.55808-0.26624 1.1264-0.50688 1.67424-0.80384 0.54784-0.29184 1.07008-0.61952 1.60256-0.94208 0.5376-0.32768 1.09568-0.64 1.62304-0.98816 0.5632-0.37888 1.1008-0.79872 1.6384-1.20832 0.4608-0.34816 0.93696-0.66048 1.38752-1.02912 0.82944-0.68096 1.60768-1.40288 2.3808-2.15552 0.13824-0.128 0.29184-0.25088 0.42496-0.37888l96.11264-96.11776L891.2896 636.68224z"></path></svg>
